<?xml version="1.0" encoding="UTF-8" standalone="no"?>
<!DOCTYPE svg PUBLIC "-//W3C//DTD SVG 1.1//EN"
 "http://www.w3.org/Graphics/SVG/1.1/DTD/svg11.dtd">
<!-- Generated by graphviz version 2.40.1 (20161225.0304)
 -->
<!-- Title: %3 Pages: 1 -->
<svg width="1071pt" height="374pt"
 viewBox="0.00 0.00 1070.73 374.00" xmlns="http://www.w3.org/2000/svg" xmlns:xlink="http://www.w3.org/1999/xlink">
<g id="graph0" class="graph" transform="scale(1 1) rotate(0) translate(4 370)">
<title>%3</title>
<polygon fill="#ffffff" stroke="transparent" points="-4,4 -4,-370 1066.7313,-370 1066.7313,4 -4,4"/>
<!-- satellite image -->
<g id="node1" class="node">
<title>satellite image</title>
<ellipse fill="none" stroke="#000000" cx="878.5444" cy="-348" rx="62.2891" ry="18"/>
<text text-anchor="middle" x="878.5444" y="-344.3" font-family="Times,serif" font-size="14.00" fill="#000000">satellite image</text>
</g>
<!-- frame 10 -->
<g id="node9" class="node">
<title>frame 10</title>
<ellipse fill="none" stroke="#000000" cx="493.669" cy="-195" rx="42.7926" ry="18"/>
<text text-anchor="middle" x="493.669" y="-191.3" font-family="Times,serif" font-size="14.00" fill="#000000">frame 10</text>
</g>
<!-- satellite image&#45;&#45;frame 10 -->
<g id="edge36" class="edge">
<title>satellite image&#45;&#45;frame 10</title>
<path fill="none" stroke="#000000" d="M822.0753,-355.8439C756.9767,-361.952 649.1285,-362.7938 572.5652,-316 533.4069,-292.0673 509.9166,-240.5197 499.704,-213.0675"/>
</g>
<!-- frame 15 -->
<g id="node14" class="node">
<title>frame 15</title>
<ellipse fill="none" stroke="#000000" cx="737.2537" cy="-141" rx="42.7926" ry="18"/>
<text text-anchor="middle" x="737.2537" y="-137.3" font-family="Times,serif" font-size="14.00" fill="#000000">frame 15</text>
</g>
<!-- satellite image&#45;&#45;frame 15 -->
<g id="edge38" class="edge">
<title>satellite image&#45;&#45;frame 15</title>
<path fill="none" stroke="#000000" d="M840.4625,-333.6015C831.6865,-328.9735 822.9449,-323.146 816.1499,-316 771.8273,-269.3881 749.4923,-193.5927 741.1836,-159.11"/>
</g>
<!-- frame 0 -->
<g id="node2" class="node">
<title>frame 0</title>
<ellipse fill="none" stroke="#000000" cx="38.3466" cy="-218" rx="38.1938" ry="18"/>
<text text-anchor="middle" x="38.3466" y="-214.3" font-family="Times,serif" font-size="14.00" fill="#000000">frame 0</text>
</g>
<!-- frame 0&#45;&#45;frame 15 -->
<g id="edge33" class="edge">
<title>frame 0&#45;&#45;frame 15</title>
<path fill="none" stroke="#dddddd" d="M44.5465,-200.1791C54.4534,-174.8084 76.5097,-129.225 112.6932,-110 188.1598,-69.9032 351.869,-93.3463 414.7728,-108 473.5413,-121.6903 496.8946,-122.5313 536.5652,-168 569.8287,-206.1253 531.5192,-246.4157 572.5652,-276 603.4978,-298.295 625.2858,-294.9777 658.3576,-276 702.6227,-250.5992 724.4227,-189.6994 732.8807,-159.1386"/>
</g>
<!-- frame 20 -->
<g id="node19" class="node">
<title>frame 20</title>
<ellipse fill="none" stroke="#000000" cx="1019.8351" cy="-99" rx="42.7926" ry="18"/>
<text text-anchor="middle" x="1019.8351" y="-95.3" font-family="Times,serif" font-size="14.00" fill="#000000">frame 20</text>
</g>
<!-- frame 0&#45;&#45;frame 20 -->
<g id="edge34" class="edge">
<title>frame 0&#45;&#45;frame 20</title>
<path fill="none" stroke="#000000" d="M42.5403,-200.0692C50.5197,-170.4529 70.9479,-112.0076 112.6932,-86 337.9757,54.3524 502.513,-27.0001 658.3576,-60 716.2851,-72.2661 740.8938,-69.6716 780.1499,-114 816.5016,-155.0485 772.0834,-199.3724 816.1499,-232 860.7235,-265.0031 892.7447,-259.4468 940.9389,-232 984.5646,-207.155 1006.5537,-147.6402 1015.2379,-117.363"/>
</g>
<!-- frame 1 -->
<g id="node3" class="node">
<title>frame 1</title>
<ellipse fill="none" stroke="#000000" cx="151.0398" cy="-299" rx="38.1938" ry="18"/>
<text text-anchor="middle" x="151.0398" y="-295.3" font-family="Times,serif" font-size="14.00" fill="#000000">frame 1</text>
</g>
<!-- frame 1&#45;&#45;frame 0 -->
<g id="edge1" class="edge">
<title>frame 1&#45;&#45;frame 0</title>
<path fill="none" stroke="#000000" d="M129.5023,-283.9186C124.0099,-280.0497 118.1239,-275.8838 112.6932,-272 94.5268,-259.0082 73.9949,-244.0763 59.1178,-233.2117"/>
</g>
<!-- frame 5 -->
<g id="node4" class="node">
<title>frame 5</title>
<ellipse fill="none" stroke="#000000" cx="263.733" cy="-195" rx="38.1938" ry="18"/>
<text text-anchor="middle" x="263.733" y="-191.3" font-family="Times,serif" font-size="14.00" fill="#000000">frame 5</text>
</g>
<!-- frame 5&#45;&#45;frame 1 -->
<g id="edge2" class="edge">
<title>frame 5&#45;&#45;frame 1</title>
<path fill="none" stroke="#dddddd" d="M249.193,-211.8166C234.78,-228.0473 211.6864,-252.9021 189.3864,-272 184.439,-276.2369 178.839,-280.4625 173.4773,-284.2701"/>
</g>
<!-- frame 2 -->
<g id="node5" class="node">
<title>frame 2</title>
<ellipse fill="none" stroke="#000000" cx="151.0398" cy="-245" rx="38.1938" ry="18"/>
<text text-anchor="middle" x="151.0398" y="-241.3" font-family="Times,serif" font-size="14.00" fill="#000000">frame 2</text>
</g>
<!-- frame 5&#45;&#45;frame 2 -->
<g id="edge4" class="edge">
<title>frame 5&#45;&#45;frame 2</title>
<path fill="none" stroke="#dddddd" d="M235.5864,-207.4881C218.3754,-215.1244 196.4349,-224.859 179.2181,-232.4978"/>
</g>
<!-- frame 3 -->
<g id="node6" class="node">
<title>frame 3</title>
<ellipse fill="none" stroke="#000000" cx="151.0398" cy="-191" rx="38.1938" ry="18"/>
<text text-anchor="middle" x="151.0398" y="-187.3" font-family="Times,serif" font-size="14.00" fill="#000000">frame 3</text>
</g>
<!-- frame 5&#45;&#45;frame 3 -->
<g id="edge6" class="edge">
<title>frame 5&#45;&#45;frame 3</title>
<path fill="none" stroke="#dddddd" d="M225.2656,-193.6346C213.6608,-193.2227 200.9273,-192.7707 189.3338,-192.3592"/>
</g>
<!-- frame 4 -->
<g id="node7" class="node">
<title>frame 4</title>
<ellipse fill="none" stroke="#000000" cx="151.0398" cy="-137" rx="38.1938" ry="18"/>
<text text-anchor="middle" x="151.0398" y="-133.3" font-family="Times,serif" font-size="14.00" fill="#000000">frame 4</text>
</g>
<!-- frame 5&#45;&#45;frame 4 -->
<g id="edge8" class="edge">
<title>frame 5&#45;&#45;frame 4</title>
<path fill="none" stroke="#dddddd" d="M237.8789,-181.6936C219.6839,-172.3292 195.4185,-159.8405 177.1638,-150.4453"/>
</g>
<!-- frame 5&#45;&#45;frame 20 -->
<g id="edge35" class="edge">
<title>frame 5&#45;&#45;frame 20</title>
<path fill="none" stroke="#000000" d="M274.5006,-177.5402C287.3763,-158.0139 310.6604,-126.6834 338.0796,-108 429.1959,-45.9134 463.8278,-45.2518 572.5652,-27 663.6577,-11.7099 710.8311,24.0454 780.1499,-37 838.1098,-88.0421 756.1485,-158.3742 816.1499,-207 859.2386,-241.9195 891.4894,-232.1149 940.9389,-207 978.2043,-188.0733 1002.0703,-142.3687 1012.9564,-116.8997"/>
</g>
<!-- frame 2&#45;&#45;frame 0 -->
<g id="edge3" class="edge">
<title>frame 2&#45;&#45;frame 0</title>
<path fill="none" stroke="#000000" d="M116.6158,-236.7524C102.6344,-233.4026 86.5196,-229.5417 72.5598,-226.1971"/>
</g>
<!-- frame 3&#45;&#45;frame 0 -->
<g id="edge5" class="edge">
<title>frame 3&#45;&#45;frame 0</title>
<path fill="none" stroke="#000000" d="M116.6158,-199.2476C102.6344,-202.5974 86.5196,-206.4583 72.5598,-209.8029"/>
</g>
<!-- frame 4&#45;&#45;frame 0 -->
<g id="edge7" class="edge">
<title>frame 4&#45;&#45;frame 0</title>
<path fill="none" stroke="#000000" d="M129.5023,-152.0814C124.0099,-155.9503 118.1239,-160.1162 112.6932,-164 94.5268,-176.9918 73.9949,-191.9237 59.1178,-202.7883"/>
</g>
<!-- frame 6 -->
<g id="node8" class="node">
<title>frame 6</title>
<ellipse fill="none" stroke="#000000" cx="376.4262" cy="-297" rx="38.1938" ry="18"/>
<text text-anchor="middle" x="376.4262" y="-293.3" font-family="Times,serif" font-size="14.00" fill="#000000">frame 6</text>
</g>
<!-- frame 6&#45;&#45;frame 5 -->
<g id="edge9" class="edge">
<title>frame 6&#45;&#45;frame 5</title>
<path fill="none" stroke="#dddddd" d="M354.028,-282.2238C348.6651,-278.4176 343.0547,-274.2043 338.0796,-270 316.094,-251.4207 293.1123,-227.4215 278.6254,-211.6382"/>
</g>
<!-- frame 10&#45;&#45;frame 6 -->
<g id="edge10" class="edge">
<title>frame 10&#45;&#45;frame 6</title>
<path fill="none" stroke="#000000" d="M477.3944,-211.8346C461.8809,-227.5458 437.5708,-251.307 414.7728,-270 409.7358,-274.13 404.1022,-278.3155 398.7367,-282.1184"/>
</g>
<!-- frame 7 -->
<g id="node10" class="node">
<title>frame 7</title>
<ellipse fill="none" stroke="#000000" cx="376.4262" cy="-243" rx="38.1938" ry="18"/>
<text text-anchor="middle" x="376.4262" y="-239.3" font-family="Times,serif" font-size="14.00" fill="#000000">frame 7</text>
</g>
<!-- frame 10&#45;&#45;frame 7 -->
<g id="edge12" class="edge">
<title>frame 10&#45;&#45;frame 7</title>
<path fill="none" stroke="#000000" d="M462.8648,-207.6114C445.0892,-214.8889 422.8714,-223.985 405.4123,-231.1329"/>
</g>
<!-- frame 8 -->
<g id="node11" class="node">
<title>frame 8</title>
<ellipse fill="none" stroke="#000000" cx="376.4262" cy="-189" rx="38.1938" ry="18"/>
<text text-anchor="middle" x="376.4262" y="-185.3" font-family="Times,serif" font-size="14.00" fill="#000000">frame 8</text>
</g>
<!-- frame 10&#45;&#45;frame 8 -->
<g id="edge14" class="edge">
<title>frame 10&#45;&#45;frame 8</title>
<path fill="none" stroke="#000000" d="M451.01,-192.8169C439.0937,-192.2071 426.2249,-191.5485 414.5865,-190.9529"/>
</g>
<!-- frame 9 -->
<g id="node12" class="node">
<title>frame 9</title>
<ellipse fill="none" stroke="#000000" cx="376.4262" cy="-135" rx="38.1938" ry="18"/>
<text text-anchor="middle" x="376.4262" y="-131.3" font-family="Times,serif" font-size="14.00" fill="#000000">frame 9</text>
</g>
<!-- frame 10&#45;&#45;frame 9 -->
<g id="edge16" class="edge">
<title>frame 10&#45;&#45;frame 9</title>
<path fill="none" stroke="#000000" d="M466.1807,-180.9327C446.9589,-171.0957 421.4458,-158.0392 402.5349,-148.3614"/>
</g>
<!-- frame 7&#45;&#45;frame 5 -->
<g id="edge11" class="edge">
<title>frame 7&#45;&#45;frame 5</title>
<path fill="none" stroke="#dddddd" d="M347.9889,-230.8876C330.9055,-223.6111 309.243,-214.3843 292.1611,-207.1086"/>
</g>
<!-- frame 8&#45;&#45;frame 5 -->
<g id="edge13" class="edge">
<title>frame 8&#45;&#45;frame 5</title>
<path fill="none" stroke="#dddddd" d="M338.2734,-191.0313C326.5243,-191.6569 313.5929,-192.3454 301.8465,-192.9708"/>
</g>
<!-- frame 9&#45;&#45;frame 5 -->
<g id="edge15" class="edge">
<title>frame 9&#45;&#45;frame 5</title>
<path fill="none" stroke="#dddddd" d="M350.8544,-148.6149C332.4114,-158.4343 307.6233,-171.632 289.2036,-181.439"/>
</g>
<!-- frame 11 -->
<g id="node13" class="node">
<title>frame 11</title>
<ellipse fill="none" stroke="#000000" cx="615.4614" cy="-249" rx="42.7926" ry="18"/>
<text text-anchor="middle" x="615.4614" y="-245.3" font-family="Times,serif" font-size="14.00" fill="#000000">frame 11</text>
</g>
<!-- frame 11&#45;&#45;frame 10 -->
<g id="edge17" class="edge">
<title>frame 11&#45;&#45;frame 10</title>
<path fill="none" stroke="#000000" d="M585.6676,-235.7901C566.6534,-227.3597 542.1092,-216.4773 523.1552,-208.0735"/>
</g>
<!-- frame 15&#45;&#45;frame 11 -->
<g id="edge18" class="edge">
<title>frame 15&#45;&#45;frame 11</title>
<path fill="none" stroke="#dddddd" d="M722.8746,-157.9729C707.8001,-175.2098 682.9299,-202.1226 658.3576,-222 653.0212,-226.3168 646.9545,-230.5095 641.0978,-234.2531"/>
</g>
<!-- frame 12 -->
<g id="node15" class="node">
<title>frame 12</title>
<ellipse fill="none" stroke="#000000" cx="615.4614" cy="-195" rx="42.7926" ry="18"/>
<text text-anchor="middle" x="615.4614" y="-191.3" font-family="Times,serif" font-size="14.00" fill="#000000">frame 12</text>
</g>
<!-- frame 15&#45;&#45;frame 12 -->
<g id="edge20" class="edge">
<title>frame 15&#45;&#45;frame 12</title>
<path fill="none" stroke="#dddddd" d="M707.46,-154.2099C688.4458,-162.6403 663.9016,-173.5227 644.9475,-181.9265"/>
</g>
<!-- frame 13 -->
<g id="node16" class="node">
<title>frame 13</title>
<ellipse fill="none" stroke="#000000" cx="615.4614" cy="-141" rx="42.7926" ry="18"/>
<text text-anchor="middle" x="615.4614" y="-137.3" font-family="Times,serif" font-size="14.00" fill="#000000">frame 13</text>
</g>
<!-- frame 15&#45;&#45;frame 13 -->
<g id="edge22" class="edge">
<title>frame 15&#45;&#45;frame 13</title>
<path fill="none" stroke="#dddddd" d="M694.3143,-141C682.6717,-141 670.0674,-141 658.4236,-141"/>
</g>
<!-- frame 14 -->
<g id="node17" class="node">
<title>frame 14</title>
<ellipse fill="none" stroke="#000000" cx="615.4614" cy="-87" rx="42.7926" ry="18"/>
<text text-anchor="middle" x="615.4614" y="-83.3" font-family="Times,serif" font-size="14.00" fill="#000000">frame 14</text>
</g>
<!-- frame 15&#45;&#45;frame 14 -->
<g id="edge24" class="edge">
<title>frame 15&#45;&#45;frame 14</title>
<path fill="none" stroke="#dddddd" d="M707.46,-127.7901C688.4458,-119.3597 663.9016,-108.4773 644.9475,-100.0735"/>
</g>
<!-- frame 15&#45;&#45;frame 20 -->
<g id="edge37" class="edge">
<title>frame 15&#45;&#45;frame 20</title>
<path fill="none" stroke="#000000" d="M751.156,-158.072C765.4898,-174.1958 789.4608,-197.3087 816.1499,-207 868.2812,-225.9299 891.4894,-232.1149 940.9389,-207 978.2043,-188.0733 1002.0703,-142.3687 1012.9564,-116.8997"/>
</g>
<!-- frame 12&#45;&#45;frame 10 -->
<g id="edge19" class="edge">
<title>frame 12&#45;&#45;frame 10</title>
<path fill="none" stroke="#000000" d="M572.5219,-195C560.8793,-195 548.275,-195 536.6312,-195"/>
</g>
<!-- frame 13&#45;&#45;frame 10 -->
<g id="edge21" class="edge">
<title>frame 13&#45;&#45;frame 10</title>
<path fill="none" stroke="#000000" d="M585.6676,-154.2099C566.6534,-162.6403 542.1092,-173.5227 523.1552,-181.9265"/>
</g>
<!-- frame 14&#45;&#45;frame 10 -->
<g id="edge23" class="edge">
<title>frame 14&#45;&#45;frame 10</title>
<path fill="none" stroke="#000000" d="M589.8249,-101.7469C583.9683,-105.4905 577.9015,-109.6832 572.5652,-114 547.9928,-133.8774 523.1226,-160.7902 508.0481,-178.0271"/>
</g>
<!-- frame 16 -->
<g id="node18" class="node">
<title>frame 16</title>
<ellipse fill="none" stroke="#000000" cx="878.5444" cy="-180" rx="42.7926" ry="18"/>
<text text-anchor="middle" x="878.5444" y="-176.3" font-family="Times,serif" font-size="14.00" fill="#000000">frame 16</text>
</g>
<!-- frame 16&#45;&#45;frame 15 -->
<g id="edge25" class="edge">
<title>frame 16&#45;&#45;frame 15</title>
<path fill="none" stroke="#000000" d="M842.5252,-170.0577C821.2677,-164.1901 794.4532,-156.7886 773.2072,-150.9241"/>
</g>
<!-- frame 20&#45;&#45;frame 16 -->
<g id="edge26" class="edge">
<title>frame 20&#45;&#45;frame 16</title>
<path fill="none" stroke="#dddddd" d="M999.1094,-114.8126C983.592,-126.2422 961.5744,-141.6112 940.9389,-153 931.2252,-158.361 920.2325,-163.4254 910.2098,-167.6881"/>
</g>
<!-- frame 17 -->
<g id="node20" class="node">
<title>frame 17</title>
<ellipse fill="none" stroke="#000000" cx="878.5444" cy="-126" rx="42.7926" ry="18"/>
<text text-anchor="middle" x="878.5444" y="-122.3" font-family="Times,serif" font-size="14.00" fill="#000000">frame 17</text>
</g>
<!-- frame 20&#45;&#45;frame 17 -->
<g id="edge28" class="edge">
<title>frame 20&#45;&#45;frame 17</title>
<path fill="none" stroke="#dddddd" d="M980.4777,-106.521C960.8808,-110.2659 937.2586,-114.78 917.6907,-118.5193"/>
</g>
<!-- frame 18 -->
<g id="node21" class="node">
<title>frame 18</title>
<ellipse fill="none" stroke="#000000" cx="878.5444" cy="-72" rx="42.7926" ry="18"/>
<text text-anchor="middle" x="878.5444" y="-68.3" font-family="Times,serif" font-size="14.00" fill="#000000">frame 18</text>
</g>
<!-- frame 20&#45;&#45;frame 18 -->
<g id="edge30" class="edge">
<title>frame 20&#45;&#45;frame 18</title>
<path fill="none" stroke="#dddddd" d="M980.4777,-91.479C960.8808,-87.7341 937.2586,-83.22 917.6907,-79.4807"/>
</g>
<!-- frame 19 -->
<g id="node22" class="node">
<title>frame 19</title>
<ellipse fill="none" stroke="#000000" cx="878.5444" cy="-18" rx="42.7926" ry="18"/>
<text text-anchor="middle" x="878.5444" y="-14.3" font-family="Times,serif" font-size="14.00" fill="#000000">frame 19</text>
</g>
<!-- frame 20&#45;&#45;frame 19 -->
<g id="edge32" class="edge">
<title>frame 20&#45;&#45;frame 19</title>
<path fill="none" stroke="#dddddd" d="M999.1094,-83.1874C983.592,-71.7578 961.5744,-56.3888 940.9389,-45 931.2252,-39.639 920.2325,-34.5746 910.2098,-30.3119"/>
</g>
<!-- frame 17&#45;&#45;frame 15 -->
<g id="edge27" class="edge">
<title>frame 17&#45;&#45;frame 15</title>
<path fill="none" stroke="#000000" d="M836.9167,-130.4194C818.6829,-132.3551 797.3276,-134.6223 779.0721,-136.5604"/>
</g>
<!-- frame 18&#45;&#45;frame 15 -->
<g id="edge29" class="edge">
<title>frame 18&#45;&#45;frame 15</title>
<path fill="none" stroke="#000000" d="M847.8555,-84.6958C837.6853,-89.0578 826.3588,-94.0837 816.1499,-99 798.2549,-107.6177 778.5308,-118.1177 763.2805,-126.4633"/>
</g>
<!-- frame 19&#45;&#45;frame 15 -->
<g id="edge31" class="edge">
<title>frame 19&#45;&#45;frame 15</title>
<path fill="none" stroke="#000000" d="M844.5653,-29.2723C834.8651,-33.3735 824.6345,-38.6082 816.1499,-45 786.8579,-67.0672 761.6778,-102.1604 748.0656,-123.2482"/>
</g>
</g>
</svg>
